<mxfile host="app.diagrams.net" modified="2021-07-19T15:39:29.260Z" agent="5.0 (Windows NT 10.0; Win64; x64) AppleWebKit/537.36 (KHTML, like Gecko) Chrome/91.0.4472.124 Safari/537.36 Edg/91.0.864.70" etag="qMlKz013o2s8EPI8ajEW" version="14.9.0" type="github">
  <diagram id="9GjbVBSgp1kmyCBMKfql" name="Page-1">
    <mxGraphModel dx="782" dy="468" grid="1" gridSize="10" guides="1" tooltips="1" connect="1" arrows="1" fold="1" page="1" pageScale="1" pageWidth="850" pageHeight="1100" math="0" shadow="0">
      <root>
        <mxCell id="0" />
        <mxCell id="1" parent="0" />
        <mxCell id="bpSljW26FFoDPyo6eikZ-6" value="&lt;p style=&quot;margin: 0px ; margin-top: 4px ; text-align: center&quot;&gt;&lt;/p&gt;&lt;div style=&quot;height: 2px&quot;&gt;&lt;b&gt;&amp;nbsp; &amp;nbsp; &amp;nbsp; &amp;nbsp; &amp;nbsp; &amp;nbsp; &amp;nbsp; &amp;nbsp; &amp;nbsp; &amp;nbsp; &amp;nbsp; &amp;nbsp; &amp;nbsp; &amp;nbsp; &amp;nbsp;Animal&lt;/b&gt;&lt;/div&gt;&lt;div style=&quot;height: 2px&quot;&gt;&lt;b&gt;&lt;br&gt;&lt;/b&gt;&lt;/div&gt;&lt;div style=&quot;height: 2px&quot;&gt;&lt;b&gt;&lt;br&gt;&lt;/b&gt;&lt;/div&gt;&lt;div style=&quot;height: 2px&quot;&gt;&lt;b&gt;&lt;br&gt;&lt;/b&gt;&lt;/div&gt;&lt;hr size=&quot;1&quot;&gt;&lt;div style=&quot;text-align: center ; height: 2px&quot;&gt;-name: String&lt;/div&gt;&lt;div style=&quot;text-align: center ; height: 2px&quot;&gt;&lt;br&gt;&lt;/div&gt;&lt;div style=&quot;text-align: center ; height: 2px&quot;&gt;&lt;br&gt;&lt;/div&gt;&lt;div style=&quot;text-align: center ; height: 2px&quot;&gt;&lt;br&gt;&lt;/div&gt;&lt;div style=&quot;text-align: center ; height: 2px&quot;&gt;&lt;br&gt;&lt;/div&gt;&lt;div style=&quot;text-align: center ; height: 2px&quot;&gt;&lt;br&gt;&lt;/div&gt;&lt;div style=&quot;text-align: center ; height: 2px&quot;&gt;&lt;br&gt;&lt;/div&gt;&lt;div style=&quot;text-align: center ; height: 2px&quot;&gt;&amp;nbsp; -id:&amp;nbsp; int&amp;nbsp;&amp;nbsp;&lt;/div&gt;&lt;div style=&quot;text-align: center ; height: 2px&quot;&gt;&lt;br&gt;&lt;/div&gt;&lt;div style=&quot;text-align: center ; height: 2px&quot;&gt;&lt;br&gt;&lt;/div&gt;&lt;div style=&quot;text-align: center ; height: 2px&quot;&gt;&lt;br&gt;&lt;/div&gt;&lt;div style=&quot;text-align: center ; height: 2px&quot;&gt;&lt;br&gt;&lt;/div&gt;&lt;div style=&quot;text-align: center ; height: 2px&quot;&gt;&lt;br&gt;&lt;/div&gt;&lt;div style=&quot;text-align: center ; height: 2px&quot;&gt;&lt;br&gt;&lt;/div&gt;&lt;div style=&quot;text-align: center ; height: 2px&quot;&gt;&lt;br&gt;&lt;/div&gt;&lt;div style=&quot;text-align: center ; height: 2px&quot;&gt;&lt;br&gt;&lt;/div&gt;&lt;div style=&quot;text-align: center ; height: 2px&quot;&gt;-Age: int&lt;/div&gt;&lt;div style=&quot;text-align: center ; height: 2px&quot;&gt;&amp;nbsp; &amp;nbsp; &amp;nbsp;&lt;/div&gt;&lt;div style=&quot;text-align: center ; height: 2px&quot;&gt;&lt;br&gt;&lt;/div&gt;&lt;div style=&quot;text-align: center ; height: 2px&quot;&gt;&lt;hr&gt;&lt;/div&gt;&lt;div style=&quot;text-align: center ; height: 2px&quot;&gt;-setName()&lt;/div&gt;&lt;div style=&quot;text-align: center ; height: 2px&quot;&gt;&lt;br&gt;&lt;/div&gt;&lt;div style=&quot;text-align: center ; height: 2px&quot;&gt;&lt;br&gt;&lt;/div&gt;&lt;div style=&quot;text-align: center ; height: 2px&quot;&gt;&lt;br&gt;&lt;/div&gt;&lt;div style=&quot;text-align: center ; height: 2px&quot;&gt;&lt;br&gt;&lt;/div&gt;&lt;div style=&quot;text-align: center ; height: 2px&quot;&gt;&lt;br&gt;&lt;/div&gt;&lt;div style=&quot;text-align: center ; height: 2px&quot;&gt;&lt;br&gt;&lt;/div&gt;&lt;div style=&quot;text-align: center ; height: 2px&quot;&gt;&lt;br&gt;&lt;/div&gt;&lt;div style=&quot;text-align: center ; height: 2px&quot;&gt;-Eat()&lt;/div&gt;" style="verticalAlign=top;align=left;overflow=fill;fontSize=12;fontFamily=Helvetica;html=1;" vertex="1" parent="1">
          <mxGeometry x="330" y="230" width="240" height="100" as="geometry" />
        </mxCell>
      </root>
    </mxGraphModel>
  </diagram>
</mxfile>
